<svg
   xmlns:svg="http://www.w3.org/2000/svg"
   xmlns="http://www.w3.org/2000/svg"
   version="1.1"
   width="496.0575"
   height="119.64777"
   id="svg33322">
  <defs
     id="defs33324" />
  <g
     transform="translate(-168.54268,-484.96687)"
     id="layer1">
    <path
       d="m 642.667,544.05877 0,-0.48798 c 9.7669,-2.92075 16.84988,-7.44897 16.84988,-26.88231 0,-23.94004 -13.52728,-30.72161 -41.41426,-30.72161 l -100.55389,0 0,117.64777 111.26806,0 c 19.9931,0 34.78339,-6.60935 34.78339,-32.3578 0,-18.52196 -5.66208,-25.27483 -20.93318,-27.19807 m -22.4115,-23.78933 c 0,6.63087 -3.76036,9.35068 -10.21183,9.35068 l -53.2192,0 0.0144,-18.65113 53.20485,0 c 6.45149,0 10.21184,2.49735 10.21184,9.30045 m 3.16474,47.02609 c 0,6.80311 -5.03774,9.93914 -12.60154,9.93914 l -53.97989,0 0,-20.40931 53.97989,0 c 7.5638,0 12.60154,2.5404 12.60154,10.47017 m -129.74697,6.97534 0,-16.07485 c 0,-16.19684 -15.46486,-29.32941 -34.53938,-29.32941 l -59.35494,0 c -6.45146,0 -10.22617,-2.40405 -10.22617,-9.0421 0,-6.81029 3.77471,-8.85552 10.22617,-8.85552 l 39.14656,0 c 5.59749,0 9.18563,1.5429 10.03243,6.3797 0.0431,0.1507 0.0645,0.29423 0.0645,0.43777 0.0431,0.27986 0.086,0.56691 0.10762,0.86115 l 39.91442,0 -0.006,-3.72449 0.006,-0.68893 c -3e-5,-15.60838 -14.88361,-28.26732 -33.26922,-28.26732 l -73.86535,0 c -18.38561,0 -33.29072,12.65894 -33.29072,28.26732 l 0,11.66144 c 0,15.61557 10.72136,31.68324 40.31629,31.68324 l 52.73842,0 c 7.56378,0 12.59435,1.85147 12.59435,9.80278 0,6.79593 -5.03057,9.85302 -12.59435,9.85302 l -41.7659,0 c -7.48485,0 -12.50824,-2.99251 -12.58718,-9.65926 l -39.3762,0 -0.007,3.15038 c 0,16.20402 11.11605,32.88885 41.83767,32.88885 l 69.35864,0 c 19.07452,0 34.53939,-13.13975 34.53939,-29.34377 m -192.66156,29.34377 39.03173,0 -62.8927,-117.64777 -45.66261,0 -61.94556,117.64777 39.19679,0 10.26206,-20.81119 71.10249,0 z m -2.47581,-77.6329 -66.4738,37.5319 0,-37.5319 z m -128.99333,28.38933 36.49133,-68.4042 -36.49133,0 z"
       id="path30288"
       style="fill:#000000" />
  </g>
</svg>
